<svg version="1.1" preserveAspectRatio="none" xmlns="http://www.w3.org/2000/svg" width="500" height="500" viewBox="0 0 500 500"><rect width="100%" height="100%" fill="#FFFFFF" fill-opacity="1"/><svg viewBox="343.8531 288.0831 303.3741 210" width="333" height="230.50748234605393" x="83.5px" y="134.7463px" xmlns="http://www.w3.org/2000/svg" xmlns:xlink="http://www.w3.org/1999/xlink" preserveAspectRatio="none"><defs></defs><style>.companyName {fill:#285380;fill-opacity:1;}.icon3 {fill:#E7A0AE;fill-opacity:1;}.icon3-str {stroke:#E7A0AE;stroke-opacity:1;}.shape {fill:#F9E9ED;fill-opacity:1;}</style><g opacity="1" transform="rotate(0 378.3955 288.0831)">
<svg width="234.2893" height="210" x="378.3955" y="288.0831" version="1.1" preserveAspectRatio="none" viewBox="5.976081848144531 15.80335807800293 188.02392578125 168.53155517578125">
  <g transform="matrix(1 0 0 1 0 0)"><g><path d="M91.052 173.189C119.033 208.059 194 154.166 194 107.109 194 72.067 160 19 113.041 16 71.147 13.324 9.093 38.026 6.094 86.084S58 132 91.052 173.189z" data-color="1" class="shape"></path></g></g>
</svg>
</g><g opacity="1" transform="rotate(0 343.8531 324.0831)">
<svg width="303.3741" height="140" x="343.8531" y="324.0831" version="1.1" preserveAspectRatio="none" viewBox="1.08 -30.6 82.6 38.120000000000005">
  <g transform="matrix(1 0 0 1 0 0)" class="companyName"><path id="id-D6z1nYkh5" d="M18.96-15.16Q17.72-15.76 16.88-16.80Q16.04-17.84 16.04-19.20L16.04-19.20Q16.04-20.20 16.58-20.68Q17.12-21.16 17.80-21.16L17.80-21.16Q18.92-21.16 19.48-20.08Q20.04-19 20.04-17.12L20.04-17.12Q20.04-16.08 19.96-15.52L19.96-15.52Q19.48-11.40 17.86-7.72Q16.24-4.04 13.54-1.74Q10.84 0.56 7.32 0.56L7.32 0.56Q4.80 0.56 3.72-0.88Q2.64-2.32 2.76-4.40L2.76-4.40Q3-7.68 5.50-11.72Q8-15.76 12.04-19.60L12.04-19.60Q11.04-19.20 9.76-18.40L9.76-18.40Q8.76-17.76 8.04-17.42Q7.32-17.08 6.76-17.08L6.76-17.08Q6.32-17.08 5.92-17.32Q5.52-17.56 5.40-17.60L5.40-17.60Q4.68-18.08 4.24-18.08L4.24-18.08Q3.60-18.08 3.18-17.54Q2.76-17 2.28-15.60L2.28-15.60L1.84-14.12L1.08-14.12L1.96-17.04Q3.08-21.12 5.72-21.12L5.72-21.12Q6.24-21.12 6.60-20.94Q6.96-20.76 7.52-20.36L7.52-20.36Q8.04-19.96 8.44-19.76Q8.84-19.56 9.36-19.56L9.36-19.56Q11.36-19.56 12.72-20.80L12.72-20.80L13.12-21.56L13.96-21.16Q10.72-17.16 8.92-13.20Q7.12-9.24 6.76-5.08L6.76-5.08Q6.72-4.72 6.72-4.12L6.72-4.12Q6.72-0.76 8.48-0.76L8.48-0.76Q11.40-0.76 13.76-3.20Q16.12-5.64 17.48-9.06Q18.84-12.48 18.96-15.16L18.96-15.16Z M28.84-27.32Q28.84-28.52 29.74-29.46Q30.64-30.40 31.80-30.40L31.80-30.40Q32.72-30.40 33.28-29.80Q33.84-29.20 33.84-28.32L33.84-28.32Q33.84-27.12 32.92-26.20Q32-25.28 30.84-25.28L30.84-25.28Q29.96-25.28 29.40-25.86Q28.84-26.44 28.84-27.32L28.84-27.32ZM27.64-17.16Q27.96-18.12 27.96-18.64L27.96-18.64Q27.96-19.64 27.08-19.64L27.08-19.64Q26.16-19.64 25.44-18.68Q24.72-17.72 23.92-15.56L23.92-15.56L23.36-14.08L22.60-14.08L23.64-17Q24.44-19.28 25.78-20.20Q27.12-21.12 28.60-21.12L28.60-21.12Q31.24-21.12 31.24-18.60L31.24-18.60Q31.24-17.28 30.60-15.52L30.60-15.52L26.32-3.40Q26-2.44 26-1.92L26-1.92Q26-0.92 26.96-0.92L26.96-0.92Q27.80-0.92 28.52-1.84Q29.24-2.76 30.08-5L30.08-5L30.64-6.48L31.40-6.48L30.36-3.56Q29.56-1.36 28.26-0.40Q26.96 0.56 25.44 0.56L25.44 0.56Q22.64 0.56 22.64-1.88L22.64-1.88Q22.64-3.04 23.36-5.04L23.36-5.04L27.64-17.16Z M27.92 7.52L28.08 6.92Q30.56 6.80 32.32 4.80Q34.08 2.80 34.96-0.76L34.96-0.76L39.56-17.16Q39.84-18.12 39.84-18.72L39.84-18.72Q39.84-19.64 38.96-19.64L38.96-19.64Q38.16-19.64 37.44-18.70Q36.72-17.76 35.92-15.56L35.92-15.56L35.40-14.08L34.64-14.08L35.60-17Q36.96-21.12 40.52-21.12L40.52-21.12Q43.20-21.12 43.20-18.68L43.20-18.68Q43.20-17.64 42.60-15.52L42.60-15.52L39.52-4.60Q37.88 2.04 34.20 5.08L34.20 5.08Q32.84 6.20 31.22 6.86Q29.60 7.52 27.92 7.52L27.92 7.52ZM40.88-27.52Q40.88-28.64 41.74-29.62Q42.60-30.60 43.84-30.60L43.84-30.60Q44.76-30.60 45.32-30.02Q45.88-29.44 45.88-28.56L45.88-28.56Q45.88-27.44 45-26.46Q44.12-25.48 42.88-25.48L42.88-25.48Q42-25.48 41.44-26.06Q40.88-26.64 40.88-27.52L40.88-27.52Z M62.16-5.04L62.64-6.52L63.40-6.52L62.40-3.60Q61.60-1.40 60.36-0.42Q59.12 0.56 57.80 0.56L57.80 0.56Q57.04 0.56 56.48 0.28Q55.92 0 55.60-0.48L55.60-0.48Q55.24-1.08 55.24-1.88L55.24-1.88Q55.24-2.72 55.52-3.76Q55.80-4.80 55.88-5.08L55.88-5.08L56.60-7.96Q54.68-3.48 52.70-1.46Q50.72 0.56 48.56 0.56L48.56 0.56Q46.72 0.56 45.76-0.76Q44.80-2.08 44.80-4.28L44.80-4.28Q44.80-7.52 46.52-11.52Q48.24-15.52 51-18.32Q53.76-21.12 56.60-21.12L56.60-21.12Q57.68-21.12 58.36-20.32Q59.04-19.52 59.16-18.08L59.16-18.08L59.80-20.56Q62-20.64 63.48-21.12L63.48-21.12L58.48-3.44Q58.44-3.28 58.32-2.82Q58.20-2.36 58.20-1.96L58.20-1.96Q58.20-0.96 59.08-0.96L59.08-0.96Q60.84-0.96 62.16-5.04L62.16-5.04ZM49.72-0.72Q50.84-0.72 52.40-2.44Q53.96-4.16 55.46-7.02Q56.96-9.88 57.92-13.12L57.92-13.12L58.64-15.96Q58.68-16.28 58.68-16.84L58.68-16.84Q58.68-18.48 58.10-19.42Q57.52-20.36 56.48-20.36L56.48-20.36Q54.76-20.36 52.84-17.70Q50.92-15.04 49.62-11.14Q48.32-7.24 48.32-3.80L48.32-3.80Q48.32-2.16 48.68-1.44Q49.04-0.72 49.72-0.72L49.72-0.72Z M81.60-21.12Q83.68-21.12 83.68-17.88L83.68-17.88Q83.68-14.08 81.32-9.08Q78.96-4.08 75.80-0.12L75.80-0.12Q72.08 4.52 67.92 6.52L67.92 6.52Q65.80 7.52 64.44 7.52L64.44 7.52Q63.60 7.52 63.02 7.08Q62.44 6.64 62.44 5.88L62.44 5.88Q62.44 5.04 63.08 4.56Q63.72 4.08 64.60 4.08L64.60 4.08Q65.44 4.08 66.22 4.50Q67 4.92 67.92 5.64L67.92 5.64Q71.04 3.96 73.92 0.84L73.92 0.84L70.96-17.08Q70.76-18.32 70.48-18.80Q70.20-19.28 69.68-19.28L69.68-19.28Q69.16-19.28 68.62-18.50Q68.08-17.72 67.32-15.60L67.32-15.60L66.80-14.12L66.04-14.12L67.04-17.04Q68.44-21.12 71.64-21.12L71.64-21.12Q72.92-21.12 73.58-20.32Q74.24-19.52 74.52-17.44L74.52-17.44L76.56-2.40Q78.76-5.44 80.36-8.78Q81.96-12.12 82.60-15.40L82.60-15.40Q81.40-16.04 80.48-16.98Q79.56-17.92 79.56-19.08L79.56-19.08Q79.56-20 80.14-20.56Q80.72-21.12 81.60-21.12L81.60-21.12Z"/></g>
</svg>
</g></svg></svg>